<?xml version="1.0" encoding="utf-8"?>
<!-- Generator: Adobe Illustrator 24.0.0, SVG Export Plug-In . SVG Version: 6.00 Build 0)  -->
<svg version="1.1" id="Layer_1" xmlns="http://www.w3.org/2000/svg" xmlns:xlink="http://www.w3.org/1999/xlink" x="0px" y="0px"
	 viewBox="0 0 285.5 232.3" style="enable-background:new 0 0 285.5 232.3;" xml:space="preserve">
<style type="text/css">
	.svg-new-star{
		fill:#e61212;
		animation-name: svg-new-star-animate;
		animation-duration: 3s;
		animation-iteration-count: infinite;
	}
	.svg-new-text{
		fill:#fae60c;
		animation-name: svg-new-text-animate;
		animation-duration: 3s;
		animation-iteration-count: infinite;
	}
	
	@keyframes svg-new-star-animate {
	  0% { fill:#e61212; }
	  45% { fill: #e61212 }
	  50% { fill: #fca521 }
	  95% { fill: #fca521 }
	  100% { fill:#e61212; }
	}
	@keyframes svg-new-text-animate {
	  0% { fill:#fae60c; }
	  45% { fill: #fae60c }
	  50% { fill: #e61212 }
	  95% { fill: #e61212 }
	  100% { fill:#fae60c; }
	}
</style>
<path class="svg-new-star" d="M269.6,94.5l-52.6-4c-2.4-0.1-4.1-2.3-3.6-4.6l6.3-31.2c0.6-3-2.4-5.4-5.3-4.3l-36.5,12.2c-1.8,0.7-4,0-4.9-1.8
	L140.8,3.7c-1.6-2.9-5.9-2.6-7,0.4l-22,58.4c-0.7,2-3,3-5.1,2.2L57,45.8c-2.8-1.2-5.8,1.2-5.2,4.1L56,88.8c0.3,1.6-0.5,3.2-2,4
	L4.1,116.2c-2.6,1.3-2.8,4.8-0.3,6.4l38.7,28.5c1.5,1,2.1,2.9,1.4,4.5l-33.2,65.7c-1.3,3.1,2,6.2,5.2,4.9l86.9-35.7
	c1.8-0.8,4,0,5,1.7l16.9,30.4c1.3,2.3,4.5,2.7,6.2,0.8l34-36.2c1.4-1.5,3.7-1.6,5.3-0.3l53.9,42.9c2.8,2.2,6.8-0.1,6.2-3.5
	l-9.2-51.6c-0.4-2.4,1.5-4.5,4-4.3l54.7,3.9c3.7,0.3,5.5-4.2,2.7-6.6l-41.7-34.4c-1.8-1.5-1.9-4.2-0.1-5.7l31.3-26.5
	C274.6,98.9,273.1,94.7,269.6,94.5z"/>
<g>
	<path class="svg-new-text" d="M58.2,151.8v-46.4c0-1.5,1.2-2.8,2.7-2.8h5.7c0.9,0,1.8,0.5,2.3,1.3l19.8,33.4v-31.9c0-1.5,1.2-2.8,2.7-2.8
		h4.1c1.5,0,2.7,1.2,2.7,2.8v46.4c0,1.5-1.2,2.8-2.7,2.8h-6c-0.9,0-1.8-0.5-2.3-1.3l-19.4-32.6v31.1c0,1.5-1.2,2.8-2.7,2.8h-4.1
		C59.4,154.6,58.2,153.4,58.2,151.8z"/>
	<path class="svg-new-text" d="M108.8,152v-46.4c0-1.5,1.2-2.8,2.7-2.8h31.9c1.5,0,2.7,1.2,2.7,2.8v3.3c0,1.5-1.2,2.8-2.7,2.8h-21.7
		c-1.5,0-2.7,1.2-2.7,2.8v6c0,1.5,1.2,2.8,2.7,2.8h19.9c1.5,0,2.7,1.2,2.7,2.8v3.2c0,1.5-1.2,2.8-2.7,2.8h-19.9
		c-1.5,0-2.7,1.2-2.7,2.8v8.6c0,1.5,1.2,2.8,2.7,2.8h22.7c1.5,0,2.7,1.2,2.7,2.8v3.2c0,1.5-1.2,2.8-2.7,2.8h-32.8
		C110,154.7,108.8,153.5,108.8,152z"/>
	<path class="svg-new-text" d="M162.2,152.6l-10.7-46.4c-0.4-1.7,0.9-3.4,2.6-3.4h4.9c1.2,0,2.3,0.9,2.6,2.2l7.1,33.5l8.6-33.6
		c0.3-1.2,1.4-2,2.6-2h7.9c1.2,0,2.3,0.9,2.6,2.1l8.3,34.2l7.2-34.1c0.3-1.3,1.3-2.2,2.6-2.2h4.7c1.7,0,3,1.7,2.6,3.4l-10.9,46.4
		c-0.3,1.2-1.4,2.1-2.6,2.1h-6.6c-1.2,0-2.3-0.8-2.6-2l-9.5-36.8l-9.4,36.8c-0.3,1.2-1.4,2-2.6,2h-6.8
		C163.6,154.7,162.5,153.9,162.2,152.6z"/>
</g>
</svg>
